<svg xmlns="http://www.w3.org/2000/svg" viewBox="0 0 1464 24" width="1464" height="24"><path d="M11.917 11.806l-.195-.139.111.305-.166.195h.25l.083.166.056-.25.25-.111-.25-.083v-.222zM35.914 11.798l-.203-.145.115.318-.173.203h.261l.086.173.059-.26.26-.116-.26-.087v-.226l-.139.134M59.897 11.754l-.248-.176.141.388-.211.247h.318l.105.211.072-.317.317-.141-.317-.106v-.251l-.138.107M83.862 11.665l-.338-.241.193.53-.289.339h.434l.145.289.097-.435.434-.193-.434-.144v-.302l-.136.052M107.806 11.519l-.488-.347.278.764-.416.487h.626l.208.417.139-.626.626-.278-.626-.208v-.385l-.133-.038M131.721 11.302l-.709-.507.405 1.114-.607.709h.911l.303.607.203-.912.911-.404-.911-.304v-.507l-.128-.174M155.601 10.995l-1.022-.73.584 1.605-.875 1.022h1.313l.438.875.292-1.313 1.314-.584-1.314-.438v-.681l-.122-.364M179.441 10.583l-1.442-1.03.824 2.265-1.236 1.443h1.854l.618 1.235.412-1.854 1.854-.824-1.854-.618v-.914l-.113-.62M203.239 10.064l-1.971-1.408 1.126 3.097-1.689 1.972h2.534l.845 1.689.563-2.535 2.535-1.126-2.535-.845V9.7l-.103-.941M227.007 9.467l-2.579-1.842 1.474 4.053-2.211 2.58h3.316l1.106 2.21.737-3.316 3.316-1.474-3.316-1.105V9.026l-.091-1.31M250.768 8.853l-3.206-2.29 1.832 5.038-2.748 3.206h4.122l1.374 2.748.916-4.122 4.123-1.832-4.123-1.374V8.332l-.077-1.691M274.544 8.276l-3.794-2.71 2.168 5.962-3.252 3.794h4.878l1.626 3.252 1.084-4.878 4.878-2.168-4.878-1.626v-2.22l-.066-2.05M298.346 7.767l-4.314-3.082 2.465 6.779-3.698 4.314h5.547l1.849 3.697 1.232-5.546 5.547-2.465-5.547-1.849V7.106l-.055-2.365M322.175 7.328l-4.761-3.401 2.721 7.482-4.081 4.761h6.121l2.041 4.081 1.36-6.122 6.121-2.72-6.121-2.041V6.611l-.046-2.637M346.03 6.955l-5.142-3.673 2.938 8.08-4.407 5.142h6.611l2.204 4.407 1.469-6.611 6.611-2.938-6.611-2.204V6.189l-.039-2.868M369.907 6.637l-5.466-3.904 3.123 8.589-4.684 5.465h7.027l2.342 4.685 1.562-7.027 7.027-3.123-7.027-2.342V5.831l-.033-3.065M393.802 6.367l-5.741-4.1 3.28 9.021-4.921 5.741h7.382l2.46 4.921 1.64-7.382 7.381-3.28-7.381-2.46V5.526l-.026-3.233M417.712 6.137l-5.976-4.268 3.415 9.39-5.122 5.976h7.683l2.561 5.122 1.707-7.683 7.683-3.415-7.683-2.561V5.266l-.021-3.375M441.636 5.941L435.46 1.53l3.529 9.704-5.294 6.176h7.941l2.646 5.294 1.765-7.941 7.94-3.529-7.94-2.646V5.044l-.018-3.497M465.571 5.773l-6.347-4.533 3.627 9.973-5.44 6.347h8.16L468.29 23l1.814-8.16 8.16-3.627-8.16-2.72V4.855l-.014-3.601M489.515 5.631L483.024.994l3.709 10.201-5.564 6.492h8.346l2.782 5.564 1.855-8.346 8.346-3.71-8.346-2.782V4.695l-.011-3.689M513.468 5.511L506.854.786l3.78 10.394-5.67 6.615h8.504l2.835 5.669 1.89-8.504 8.504-3.78-8.504-2.835V4.559l-.009-3.764M537.429 5.409L530.711.611l3.839 10.556-5.758 6.718h8.637l2.879 5.758 1.919-8.637 8.638-3.839-8.638-2.879V4.444l-.006-3.827M561.396 5.325l-6.804-4.86 3.888 10.692-5.832 6.804h8.748l2.916 5.832 1.944-8.748 8.748-3.888-8.748-2.916V4.349L566.251.47M585.369 5.256L578.495.345l3.928 10.803-5.892 6.875h8.838l2.946 5.892 1.965-8.839 8.838-3.928-8.838-2.946V4.271l-.004-3.922M609.348 5.2L602.416.249l3.961 10.892-5.941 6.931h8.912l2.97 5.941 1.98-8.911 8.912-3.961-8.912-2.97V4.208l-.002-3.956M633.331 5.157L626.355.174l3.986 10.962-5.979 6.975h8.969l2.989 5.979 1.993-8.968 8.969-3.986-8.969-2.99V4.159l-.001-3.983M657.318 5.125L650.31.119l4.005 11.013-6.007 7.008h9.01l3.004 6.007 2.002-9.011 9.011-4.004-9.011-3.004V4.123l-.001-4.004M681.31 5.102L674.279.081l4.017 11.048-6.026 7.031h9.04l3.013 6.026 2.009-9.04 9.039-4.017-9.039-3.013V4.098l-.001-4.017M705.305 5.09L698.261.059l4.025 11.068-6.037 7.044h9.056l3.018 6.037 2.013-9.056 9.056-4.025-9.056-3.018V.059M729.303 5.086L722.255.052l4.028 11.075-6.041 7.048h9.061l3.021 6.041 2.013-9.062 9.062-4.027-9.062-3.021V.052" fill="#f8e9a1"/><path d="M753.303 5.086L746.255.052l4.028 11.075-6.041 7.048h9.061l3.021 6.041 2.013-9.062 9.062-4.027-9.062-3.021V.052" fill="#f8e9a1" fill-opacity=".997525"/><path d="M777.303 5.086L770.255.052l4.028 11.075-6.041 7.048h9.061l3.021 6.041 2.013-9.062 9.062-4.027-9.062-3.021V.052" fill="#f8e9a1" fill-opacity=".989359"/><path d="M801.303 5.086L794.255.052l4.028 11.075-6.041 7.048h9.061l3.021 6.041 2.013-9.062 9.062-4.027-9.062-3.021V.052" fill="#f8e9a1" fill-opacity=".974137"/><path d="M825.303 5.086L818.255.052l4.028 11.075-6.041 7.048h9.061l3.021 6.041 2.013-9.062 9.062-4.027-9.062-3.021V.052" fill="#f8e9a1" fill-opacity=".950069"/><path d="M849.303 5.086L842.255.052l4.028 11.075-6.041 7.048h9.061l3.021 6.041 2.013-9.062 9.062-4.027-9.062-3.021V.052" fill="#f8e9a1" fill-opacity=".914895"/><path d="M873.303 5.086L866.255.052l4.028 11.075-6.041 7.048h9.061l3.021 6.041 2.013-9.062 9.062-4.027-9.062-3.021V.052" fill="#f8e9a1" fill-opacity=".866053"/><path d="M897.303 5.086L890.255.052l4.028 11.075-6.041 7.048h9.061l3.021 6.041 2.013-9.062 9.062-4.027-9.062-3.021V.052" fill="#f8e9a1" fill-opacity=".801538"/><path d="M921.303 5.086L914.255.052l4.028 11.075-6.041 7.048h9.061l3.021 6.041 2.013-9.062 9.062-4.027-9.062-3.021V.052" fill="#f8e9a1" fill-opacity=".721946"/><path d="M945.303 5.086L938.255.052l4.028 11.075-6.041 7.048h9.061l3.021 6.041 2.013-9.062 9.062-4.027-9.062-3.021V.052" fill="#f8e9a1" fill-opacity=".632704"/><path d="M969.303 5.086L962.255.052l4.028 11.075-6.041 7.048h9.061l3.021 6.041 2.013-9.062 9.062-4.027-9.062-3.021V.052" fill="#f8e9a1" fill-opacity=".542748"/><path d="M993.303 5.086L986.255.052l4.028 11.075-6.041 7.048h9.061l3.021 6.041 2.013-9.062 9.062-4.027-9.062-3.021V.052" fill="#f8e9a1" fill-opacity=".459545"/><path d="M1017.303 5.086l-7.048-5.034 4.028 11.075-6.041 7.048h9.061l3.021 6.041 2.013-9.062 9.062-4.027-9.062-3.021V.052" fill="#f8e9a1" fill-opacity=".386405"/><path d="M1041.303 5.086l-7.048-5.034 4.028 11.075-6.041 7.048h9.061l3.021 6.041 2.013-9.062 9.062-4.027-9.062-3.021V.052" fill="#f8e9a1" fill-opacity=".32358"/><path d="M1065.303 5.086l-7.048-5.034 4.028 11.075-6.041 7.048h9.061l3.021 6.041 2.013-9.062 9.062-4.027-9.062-3.021V.052" fill="#f8e9a1" fill-opacity=".270033"/><path d="M1089.303 5.086l-7.048-5.034 4.028 11.075-6.041 7.048h9.061l3.021 6.041 2.013-9.062 9.062-4.027-9.062-3.021V.052" fill="#f8e9a1" fill-opacity=".224439"/><path d="M1113.303 5.086l-7.048-5.034 4.028 11.075-6.041 7.048h9.061l3.021 6.041 2.013-9.062 9.062-4.027-9.062-3.021V.052" fill="#f8e9a1" fill-opacity=".185568"/><path d="M1137.303 5.086l-7.048-5.034 4.028 11.075-6.041 7.048h9.061l3.021 6.041 2.013-9.062 9.062-4.027-9.062-3.021V.052" fill="#f8e9a1" fill-opacity=".152382"/><path d="M1161.303 5.086l-7.048-5.034 4.028 11.075-6.041 7.048h9.061l3.021 6.041 2.013-9.062 9.062-4.027-9.062-3.021V.052" fill="#f8e9a1" fill-opacity=".124032"/><path d="M1185.303 5.086l-7.048-5.034 4.028 11.075-6.041 7.048h9.061l3.021 6.041 2.013-9.062 9.062-4.027-9.062-3.021V.052" fill="#f8e9a1" fill-opacity=".099832"/><path d="M1209.303 5.086l-7.048-5.034 4.028 11.075-6.041 7.048h9.061l3.021 6.041 2.013-9.062 9.062-4.027-9.062-3.021V.052" fill="#f8e9a1" fill-opacity=".079224"/><path d="M1233.303 5.086l-7.048-5.034 4.028 11.075-6.041 7.048h9.061l3.021 6.041 2.013-9.062 9.062-4.027-9.062-3.021V.052" fill="#f8e9a1" fill-opacity=".061755"/><path d="M1257.303 5.086l-7.048-5.034 4.028 11.075-6.041 7.048h9.061l3.021 6.041 2.013-9.062 9.062-4.027-9.062-3.021V.052" fill="#f8e9a1" fill-opacity=".047048"/><path d="M1281.303 5.086l-7.048-5.034 4.028 11.075-6.041 7.048h9.061l3.021 6.041 2.013-9.062 9.062-4.027-9.062-3.021V.052" fill="#f8e9a1" fill-opacity=".034795"/><path d="M1305.303 5.086l-7.048-5.034 4.028 11.075-6.041 7.048h9.061l3.021 6.041 2.013-9.062 9.062-4.027-9.062-3.021V.052" fill="#f8e9a1" fill-opacity=".024732"/><path d="M1329.303 5.086l-7.048-5.034 4.028 11.075-6.041 7.048h9.061l3.021 6.041 2.013-9.062 9.062-4.027-9.062-3.021V.052" fill="#f8e9a1" fill-opacity=".016641"/><path d="M1353.303 5.086l-7.048-5.034 4.028 11.075-6.041 7.048h9.061l3.021 6.041 2.013-9.062 9.062-4.027-9.062-3.021V.052" fill="#f8e9a1" fill-opacity=".010333"/><path d="M1377.303 5.086l-7.048-5.034 4.028 11.075-6.041 7.048h9.061l3.021 6.041 2.013-9.062 9.062-4.027-9.062-3.021V.052" fill="#f8e9a1" fill-opacity=".005646"/><path d="M1401.303 5.086l-7.048-5.034 4.028 11.075-6.041 7.048h9.061l3.021 6.041 2.013-9.062 9.062-4.027-9.062-3.021V.052" fill="#f8e9a1" fill-opacity=".00244"/><path d="M1425.303 5.086l-7.048-5.034 4.028 11.075-6.041 7.048h9.061l3.021 6.041 2.013-9.062 9.062-4.027-9.062-3.021V.052" fill="#f8e9a1" fill-opacity=".000594"/></svg>