<?xml version="1.0" encoding="UTF-8"?>
<svg width="50px" height="50px" viewBox="0 0 50 50" version="1.1" xmlns="http://www.w3.org/2000/svg" xmlns:xlink="http://www.w3.org/1999/xlink">
    <!-- Generator: Sketch 55.2 (78181) - https://sketchapp.com -->
    <title>audio-on</title>
    <desc>Created with Sketch.</desc>
    <g id="audio-on" stroke="none" stroke-width="1" fill="none" fill-rule="evenodd">
        <g id="Group-2" transform="translate(5.113416, 2.500000)">
            <g id="Group" transform="translate(1.386584, 0.000000)">
                <path d="M28.2500288,29.113568 C30.7298452,27.8153316 32.4219755,25.2174328 32.4219755,22.2243157 C32.4219755,19.0383254 30.8334249,16.2495007 28.0897527,15.049896" id="Oval" stroke="#A8D0E6" stroke-width="2" stroke-linecap="round"></path>
                <path d="M28.4809564,35.8977223 C33.3532427,33.3469772 36.6779016,28.2426851 36.6779016,22.3618772 C36.6779016,16.1021165 33.5567538,10.6226975 28.1660494,8.26574167" id="Oval-Copy" stroke="#A8D0E6" stroke-width="2" stroke-linecap="round"></path>
                <path d="M11.3392678,12.5328749 L11.3392678,31.6305891 L2,31.6305891 C0.8954305,31.6305891 1.3527075e-16,30.7351586 0,29.6305891 L0,14.5328749 C-3.57315355e-16,13.4283054 0.8954305,12.5328749 2,12.5328749 L11.3392678,12.5328749 Z" id="Path-4" fill="#24305E"></path>
                <path d="M10.6130564,12.5328749 L23.2778374,1.45119153 C23.693474,1.08750948 24.3252366,1.12962699 24.6889187,1.54526362 C24.8484237,1.72755511 24.936342,1.96154508 24.936342,2.20376823 L24.936342,41.9596958 C24.936342,42.5119805 24.4886267,42.9596958 23.936342,42.9596958 C23.6941188,42.9596958 23.4601289,42.8717775 23.2778374,42.7122725 L10.6130564,31.6305891 L10.6130564,12.5328749 Z" id="Path-6" fill="#374785"></path>
            </g>
            <path d="M2.82241583,15.3225697 C3.8282427,15.3237469 4.64308706,14.6959996 4.64242204,13.9204552 C4.64175622,13.1449108 4.04533454,13.3733594 3.03950767,13.3721806 C2.0336808,13.3710017 0.9993349,13.1406418 1,13.9161862 C1.00066574,14.6917306 1.81658896,15.3213892 2.82241583,15.3225697 Z" id="Light-up-left-shadow" fill="#A0ACDB" transform="translate(2.821211, 14.330934) rotate(123.000000) translate(-2.821211, -14.330934) "></path>
            <path d="M18.6836229,16.5521719 C20.5161533,16.5504772 19.4471065,13.0951746 19.4514284,9.06906205 C19.4557503,5.04294945 20.464411,2.46092635 18.6318806,2.46245285 C16.7993503,2.46413355 17.184614,5.46765193 17.1802921,9.49376453 C17.1759702,13.5198771 16.8510925,16.5536844 18.6836229,16.5521719 Z" id="Light-Big-Shadow" fill-opacity="0.502157998" fill="#A8D0E6" transform="translate(18.453425, 9.507312) rotate(49.000000) translate(-18.453425, -9.507312) "></path>
        </g>
    </g>
</svg>