<?xml version="1.0" encoding="UTF-8"?>
<svg width="26px" height="24px" viewBox="0 0 26 24" version="1.1" xmlns="http://www.w3.org/2000/svg" xmlns:xlink="http://www.w3.org/1999/xlink">
    <!-- Generator: Sketch 55.1 (78136) - https://sketchapp.com -->
    <title>blueMine Copy</title>
    <desc>Created with Sketch.</desc>
    <g id="blueMine-Copy" stroke="none" stroke-width="1" fill="none" fill-rule="evenodd">
        <g id="mine" transform="translate(-0.761981, -0.895975)">
            <path d="M8.95054226,2.88442446 C10.4039204,2.17638057 12.0365584,1.7791211 13.7619814,1.7791211 C15.4874044,1.7791211 17.1200425,2.17638057 18.5734206,2.88442446 L19.3485054,1.42670194 C19.6077874,0.93906345 20.213286,0.753943926 20.7009245,1.01322591 C21.188563,1.2725079 21.3736826,1.87800658 21.1144006,2.36564507 L20.286721,3.92228385 C22.7493587,5.73951318 24.4269827,8.55927716 24.7171384,11.7791211 L25.7619814,11.7791211 C26.3142662,11.7791211 26.7619814,12.2268363 26.7619814,12.7791211 C26.7619814,13.3314058 26.3142662,13.7791211 25.7619814,13.7791211 L24.7171384,13.7791211 C24.4707626,16.5131421 23.2240248,18.9587063 21.3457546,20.7469843 L22.1144006,22.1925971 C22.3736826,22.6802356 22.188563,23.2857343 21.7009245,23.5450163 C21.213286,23.8042983 20.6077874,23.6191787 20.3485054,23.1315403 L19.7508203,22.007458 C18.0275406,23.1280945 15.9707887,23.7791211 13.7619814,23.7791211 C12.0365584,23.7791211 10.4039204,23.3818616 8.95054226,22.6738177 L8.17545744,24.1315403 C7.91617546,24.6191787 7.31067678,24.8042983 6.82303829,24.5450163 C6.3353998,24.2857343 6.15028027,23.6802356 6.40956226,23.1925971 L7.23724178,21.6359583 C4.77460412,19.818729 3.09698011,16.998965 2.80682443,13.7791211 L1.76198141,13.7791211 C1.20969666,13.7791211 0.761981414,13.3314058 0.761981414,12.7791211 C0.761981414,12.2268363 1.20969666,11.7791211 1.76198141,11.7791211 L2.80682443,11.7791211 C3.09698011,8.55927716 4.77460412,5.73951318 7.23724178,3.92228385 L6.40956226,2.36564507 C6.15028027,1.87800658 6.3353998,1.2725079 6.82303829,1.01322591 C7.31067678,0.753943926 7.91617546,0.93906345 8.17545744,1.42670194 L8.95054226,2.88442446 Z" id="Mine" fill="#A8D0E6" fill-rule="nonzero"></path>
            <g id="Shadows">
                <path d="M1.5,12.4810568 C1.77614237,12.4810568 2,12.3334388 2,12.1513427 C2,11.9692467 1.83620284,12.0230501 1.56006046,12.0230501 C1.28391809,12.0230501 1,11.9692467 1,12.1513427 C1,12.3334388 1.22385763,12.4810568 1.5,12.4810568 Z" id="Oval-Light-center-left-shadow" fill="#CBE9FA" transform="translate(1.500000, 12.248342) rotate(151.000000) translate(-1.500000, -12.248342) "></path>
                <path d="M1.85162478,13.4710736 C2.25414632,13.4710736 2.58045451,13.3234556 2.58045451,13.1413595 C2.58045451,12.9592635 2.34169402,13.0130669 1.93917248,13.0130669 C1.53665093,13.0130669 1.12279504,12.9592635 1.12279504,13.1413595 C1.12279504,13.3234556 1.44910323,13.4710736 1.85162478,13.4710736 Z" id="Dark-center-left-shadow" fill="#7893C3" opacity="0.5" transform="translate(1.851625, 13.238359) scale(1, -1) rotate(179.000000) translate(-1.851625, -13.238359) "></path>
                <path d="M26.2099878,13.4426086 C26.5129965,13.4426086 26.7586335,13.2949906 26.7586335,13.1128945 C26.7586335,12.9307985 26.5789003,12.9846019 26.2758916,12.9846019 C25.972883,12.9846019 25.6613421,12.9307985 25.6613421,13.1128945 C25.6613421,13.2949906 25.9069792,13.4426086 26.2099878,13.4426086 Z" id="Dark-center-right-shadow" fill="#7893C3" opacity="0.5" transform="translate(26.209988, 13.209894) scale(1, -1) rotate(219.000000) translate(-26.209988, -13.209894) "></path>
                <path d="M21.2137878,23.5158582 C21.5304512,23.5158582 21.7871576,23.3682402 21.7871576,23.1861441 C21.7871576,23.0040481 21.5993249,23.0578515 21.2826615,23.0578515 C20.9659981,23.0578515 20.6404179,23.0040481 20.6404179,23.1861441 C20.6404179,23.3682402 20.8971243,23.5158582 21.2137878,23.5158582 Z" id="Dark-down-right-shadow" fill="#7893C3" opacity="0.5" transform="translate(21.213788, 23.283143) scale(1, -1) rotate(179.000000) translate(-21.213788, -23.283143) "></path>
                <path d="M7.05263579,24.2703229 C7.45515734,24.2703229 7.78146552,24.1227049 7.78146552,23.9406089 C7.78146552,23.7585128 7.54270504,23.8123162 7.14018349,23.8123162 C6.73766194,23.8123162 6.32380605,23.7585128 6.32380605,23.9406089 C6.32380605,24.1227049 6.65011424,24.2703229 7.05263579,24.2703229 Z" id="Dark-down-left-shadow" fill="#7893C3" opacity="0.5" transform="translate(7.052636, 24.037608) scale(1, -1) rotate(153.000000) translate(-7.052636, -24.037608) "></path>
                <path d="M6.75777946,1.81825555 C7.03392184,1.81825555 7.25777946,1.67063755 7.25777946,1.4885415 C7.25777946,1.30644546 7.0939823,1.36024886 6.81783992,1.36024886 C6.54169755,1.36024886 6.25777946,1.30644546 6.25777946,1.4885415 C6.25777946,1.67063755 6.48163709,1.81825555 6.75777946,1.81825555 Z" id="Light-up-left-shadow" fill="#CBE9FA" transform="translate(6.757779, 1.585541) rotate(123.000000) translate(-6.757779, -1.585541) "></path>
                <path d="M20.1830974,1.56242893 C20.4592398,1.56242893 20.6830974,1.41481092 20.6830974,1.23271488 C20.6830974,1.05061884 20.5193002,1.10442224 20.2431579,1.10442224 C19.9670155,1.10442224 19.6830974,1.05061884 19.6830974,1.23271488 C19.6830974,1.41481092 19.906955,1.56242893 20.1830974,1.56242893 Z" id="Light-up-right-shadow" fill="#CBE9FA" transform="translate(20.183097, 1.329714) rotate(167.000000) translate(-20.183097, -1.329714) "></path>
                <path d="M6.62689999,12.9716861 C7.73146949,12.9716861 6.23616886,10.6958236 6.23616886,8.00661915 C6.23616886,5.31741468 7.73146949,3.2332152 6.62689999,3.2332152 C5.52233049,3.2332152 4.62689999,5.41324616 4.62689999,8.10245063 C4.62689999,10.7916551 5.52233049,12.9716861 6.62689999,12.9716861 Z" id="Light-Big-Shadow" fill="#CBE9FA" transform="translate(5.830258, 8.102451) rotate(31.000000) translate(-5.830258, -8.102451) "></path>
                <path d="M25.1170398,20.649571 C25.7197722,20.649571 22.1003871,19.2377697 19.8838931,16.7941624 C18.0384325,14.7596066 17.5695125,11.7654018 17.5695125,10.5436203 C17.5695125,7.85441585 19.0648132,5.77021638 17.9602437,5.77021638 C16.8556742,5.77021638 15.9602437,7.95024733 15.9602437,10.6394518 C15.9602437,11.9009107 17.2888768,15.671721 19.2842448,17.7377841 C21.5426439,20.0761974 24.5306046,20.649571 25.1170398,20.649571 Z" id="Dark-Big-Shadow" fill="#7893C3" opacity="0.503194754" transform="translate(20.572012, 13.209894) scale(-1, -1) rotate(31.000000) translate(-20.572012, -13.209894) "></path>
            </g>
        </g>
    </g>
</svg>