<?xml version="1.0" encoding="UTF-8"?>
<svg width="400px" height="400px" viewBox="0 0 400 400" version="1.1" xmlns="http://www.w3.org/2000/svg" xmlns:xlink="http://www.w3.org/1999/xlink">
    <!-- Generator: Sketch 55.1 (78136) - https://sketchapp.com -->
    <title>winner</title>
    <desc>Created with Sketch.</desc>
    <defs>
        <filter x="-6.8%" y="-6.5%" width="113.6%" height="112.5%" filterUnits="objectBoundingBox" id="filter-1">
            <feOffset dx="5" dy="5" in="SourceAlpha" result="shadowOffsetOuter1"></feOffset>
            <feGaussianBlur stdDeviation="2.5" in="shadowOffsetOuter1" result="shadowBlurOuter1"></feGaussianBlur>
            <feColorMatrix values="0 0 0 0 0   0 0 0 0 0   0 0 0 0 0  0 0 0 0.5 0" type="matrix" in="shadowBlurOuter1" result="shadowMatrixOuter1"></feColorMatrix>
            <feMerge>
                <feMergeNode in="shadowMatrixOuter1"></feMergeNode>
                <feMergeNode in="SourceGraphic"></feMergeNode>
            </feMerge>
        </filter>
    </defs>
    <g id="winner" stroke="none" stroke-width="1" fill="none" fill-rule="evenodd">
        <g id="Group" filter="url(#filter-1)" transform="translate(60.000000, 21.000000)">
            <g id="mine" transform="translate(0.000000, 81.000000)">
                <path d="M87.3847215,22.9431985 C102.814983,15.442505 120.148417,11.2341196 138.466932,11.2341196 C156.785448,11.2341196 174.118881,15.442505 189.549143,22.9431985 L197.771977,7.51221212 C200.529569,2.33730859 206.956538,0.372390869 212.136452,3.12056003 L212.136482,3.12057587 C212.142159,3.12358766 212.147833,3.12660461 212.153504,3.12962673 C217.316264,5.88074808 219.271284,12.2962165 216.520162,17.4589765 L207.738956,33.9378067 C233.884351,53.1887042 251.695392,83.0599957 254.775925,117.169552 L265.892123,117.169552 C271.742776,117.169552 276.485667,121.912442 276.485667,127.763095 C276.485667,133.613747 271.742776,138.356638 265.892123,138.356638 L254.775925,138.356638 C252.160195,167.319608 238.923798,193.226798 218.98253,212.170998 L227.136988,227.47367 C229.888109,232.63643 227.93309,239.051898 222.77033,241.803019 C222.764659,241.806042 222.758985,241.809059 222.753308,241.81207 L222.753278,241.812086 C217.573364,244.560255 211.146395,242.595338 208.388803,237.420434 L202.04939,225.52388 C183.753631,237.395391 161.917455,244.29207 138.466932,244.29207 C120.148417,244.29207 102.814983,240.083684 87.3847215,232.582991 L79.1618879,248.013977 C76.4042956,253.188881 69.9773264,255.153799 64.7974125,252.405629 L64.7973827,252.405614 C64.7917059,252.402602 64.7860318,252.399585 64.7803605,252.396563 C59.6176005,249.645441 57.6625811,243.229973 60.4137024,238.067213 L69.1949089,221.588383 C43.0495141,202.337485 25.2384724,172.466194 22.1579401,138.356638 L11.0417414,138.356638 C5.19108908,138.356638 0.448198242,133.613747 0.448198242,127.763095 C0.448198242,121.912442 5.19108908,117.169552 11.0417414,117.169552 L22.1579401,117.169552 C25.2384724,83.0599957 43.0495141,53.1887042 69.1949089,33.9378067 L60.4137024,17.4589765 C57.6625811,12.2962165 59.6176005,5.88074808 64.7803605,3.12962673 C64.7860318,3.12660461 64.7917059,3.12358766 64.7973827,3.12057587 L64.7974125,3.12056003 C69.9773264,0.372390869 76.4042956,2.33730859 79.1618879,7.51221212 L87.3847215,22.9431985 Z" id="Mine" fill="#F76C6C" fill-rule="nonzero"></path>
                <g id="Shadows" transform="translate(2.179243, 2.207792)">
                    <path d="M6.10902768,122.400745 C9.039272,122.403467 11.413247,120.841072 11.4114503,118.911033 C11.4096516,116.980994 9.67207318,117.54964 6.74182886,117.546914 C3.81158454,117.544188 0.798298229,116.971122 0.80009514,118.901161 C0.801893659,120.831199 3.17878336,122.398015 6.10902768,122.400745 Z" id="Oval-Light-center-left-shadow" fill="#DFA0A0" transform="translate(6.105773, 119.933026) rotate(151.000000) translate(-6.105773, -119.933026) "></path>
                    <path d="M9.83768331,132.885533 C14.1111816,132.885697 17.5754024,131.322031 17.5754024,129.392987 C17.5754024,127.463943 15.0404735,128.033815 10.7669753,128.033652 C6.49347703,128.033488 2.09969627,127.463351 2.09969627,129.392395 C2.09969627,131.321438 5.56418506,132.88537 9.83768331,132.885533 Z" id="Dark-center-left-shadow" fill="#C44444" opacity="0.5" transform="translate(9.837549, 130.420187) scale(1, -1) rotate(179.000000) translate(-9.837549, -130.420187) "></path>
                    <path d="M268.440137,132.587276 C271.654333,132.58382 274.261635,131.015864 274.26371,129.085143 C274.265782,127.154421 272.35863,127.726933 269.144434,127.730383 C265.930238,127.733833 262.626148,127.166916 262.624074,129.097638 C262.622001,131.028359 265.225941,132.590721 268.440137,132.587276 Z" id="Dark-center-right-shadow" fill="#C44444" opacity="0.5" transform="translate(268.443892, 130.117858) scale(1, -1) rotate(219.000000) translate(-268.443892, -130.117858) "></path>
                    <path d="M215.402393,239.295393 C218.764351,239.295521 221.489623,237.731827 221.489623,235.802783 C221.489623,233.87374 219.495385,234.443633 216.133427,234.443504 C212.771468,234.443375 209.314895,233.873274 209.314895,235.802318 C209.314895,237.731361 212.040435,239.295264 215.402393,239.295393 Z" id="Dark-down-right-shadow" fill="#C44444" opacity="0.5" transform="translate(215.402259, 236.830061) scale(1, -1) rotate(179.000000) translate(-215.402259, -236.830061) "></path>
                    <path d="M65.0603921,247.28956 C69.3319616,247.293344 72.7933626,245.731911 72.7916483,243.801995 C72.7899327,241.872079 70.2567067,242.440057 65.9851371,242.436267 C61.7135676,242.432476 57.321211,241.858351 57.3229255,243.788267 C57.324641,245.718183 60.7888226,247.285763 65.0603921,247.28956 Z" id="Dark-down-left-shadow" fill="#C44444" opacity="0.5" transform="translate(65.057287, 244.821539) scale(1, -1) rotate(153.000000) translate(-65.057287, -244.821539) "></path>
                    <path d="M61.93042,9.44579122 C64.8576533,9.44872381 67.2290748,7.88488933 67.2271395,5.95286501 C67.2252017,4.02084069 65.4894503,4.58994847 62.562217,4.58701175 C59.6349837,4.58407503 56.6247522,4.01020588 56.6266878,5.9422302 C56.6286253,7.87425452 59.0031867,9.44285037 61.93042,9.44579122 Z" id="Light-up-left-shadow" fill="#DFA0A0" transform="translate(61.926914, 6.975444) rotate(123.000000) translate(-61.926914, -6.975444) "></path>
                    <path d="M204.461859,6.73214291 C207.393289,6.73355116 209.768929,5.17072189 209.768,3.24146507 C209.767071,1.31220825 208.028532,1.88140438 205.097102,1.87999518 C202.165672,1.87858597 199.151423,1.30710506 199.152352,3.23636188 C199.153282,5.1656187 201.530429,6.73073275 204.461859,6.73214291 Z" id="Light-up-right-shadow" fill="#DFA0A0" transform="translate(204.460176, 4.265990) rotate(167.000000) translate(-204.460176, -4.265990) "></path>
                    <path d="M60.4817638,127.630053 C72.2019639,127.618695 56.3592454,103.510562 56.3868868,75.0057496 C56.4145281,46.5009373 72.3020619,24.3936385 60.5818619,24.4049876 C48.8616619,24.4163454 39.3381548,47.5332652 39.3104532,76.0380775 C39.2828722,104.54289 48.7615638,127.641402 60.4817638,127.630053 Z" id="Light-Big-Shadow" fill="#DFA0A0" transform="translate(52.101728, 76.017520) rotate(31.000000) translate(-52.101728, -76.017520) "></path>
                    <path d="M256.778964,208.961769 C263.174346,208.955569 224.784831,194.028074 201.291506,168.149305 C181.730883,146.602554 176.786114,114.869643 176.798672,101.919103 C176.826313,73.4142907 192.713847,51.3069919 180.993647,51.318341 C169.273447,51.3296988 159.74994,74.4466186 159.72229,102.951431 C159.709332,116.322541 173.768235,156.278415 194.919149,178.157594 C218.858194,202.920905 250.556505,208.967792 256.778964,208.961769 Z" id="Dark-Big-Shadow" fill="#C44444" opacity="0.503194754" transform="translate(208.604825, 130.140055) scale(-1, -1) rotate(31.000000) translate(-208.604825, -130.140055) "></path>
                </g>
            </g>
            <path d="M85.997534,31.1956303 C84.8870543,31.7762525 83.6238137,32.1045993 82.2838836,32.1045993 C77.8511635,32.1045993 74.2577338,28.5111696 74.2577338,24.0784495 C74.2577338,19.6457293 77.8511635,16.0522996 82.2838836,16.0522996 C86.7166038,16.0522996 90.3100335,19.6457293 90.3100335,24.0784495 C90.3100335,26.4106383 89.3153246,28.5105005 87.7270194,29.9769236 C96.3105022,33.7903994 102.92358,37.5763152 107.566256,41.3346716 C112.810632,45.5801189 117.358783,51.7335004 121.21071,59.7948162 C123.366819,49.3359382 125.507125,41.5773267 127.63163,36.5189817 C129.531467,31.9955596 132.513669,25.0988374 136.578235,15.8288151 C133.056868,14.9794812 130.440783,11.8083252 130.440783,8.02614982 C130.440783,3.59342968 134.034212,-7.10542736e-15 138.466932,-7.10542736e-15 C142.899653,-7.10542736e-15 146.493082,3.59342968 146.493082,8.02614982 C146.493082,12.1140837 143.436921,15.488213 139.484762,15.9883744 C142.903877,24.5361627 145.641291,31.3796985 147.697005,36.5189817 C150.029692,42.3507003 152.169999,50.1093118 154.117925,59.7948162 C159.586665,50.8665481 165.472508,43.9105516 171.775454,38.9268266 C177.30326,34.5560033 183.333368,31.7548904 189.865778,30.5234878 C187.898414,29.0607033 186.623831,26.7184237 186.623831,24.0784495 C186.623831,19.6457293 190.217261,16.0522996 194.649981,16.0522996 C199.082701,16.0522996 202.676131,19.6457293 202.676131,24.0784495 C202.676131,28.5111696 199.082701,32.1045993 194.649981,32.1045993 C193.58595,32.1045993 192.570279,31.8975485 191.641059,31.5215392 C184.150325,42.2897449 179.133686,52.5167855 176.591144,62.2026611 C173.936814,72.3143961 172.331584,83.8185442 171.775454,96.7151053 L103.553181,96.7151053 C103.629201,84.7124253 102.29151,73.2082772 99.5401058,62.2026611 C97.0052043,52.0630552 92.4910137,41.7273783 85.997534,31.1956302 Z M103.547746,101.807395 L172.608428,101.807395 C173.712998,101.807395 174.608428,102.702826 174.608428,103.807395 L174.608428,114 C174.608428,115.104569 173.712998,116 172.608428,116 L103.547746,116 C102.443176,116 101.547746,115.104569 101.547746,114 L101.547746,103.807395 C101.547746,102.702826 102.443176,101.807395 103.547746,101.807395 Z" id="Combined-Shape" stroke="#F5C276" stroke-width="3" fill="#FFEEA3" stroke-linejoin="round"></path>
        </g>
    </g>
</svg>