<?xml version="1.0" encoding="UTF-8"?>
<svg width="489px" height="104px" viewBox="0 0 489 104" version="1.1" xmlns="http://www.w3.org/2000/svg" xmlns:xlink="http://www.w3.org/1999/xlink">
    <!-- Generator: Sketch 55 (78076) - https://sketchapp.com -->
    <title>Logo</title>
    <desc>Created with Sketch.</desc>
    <g id="Page-1" stroke="none" stroke-width="1" fill="none" fill-rule="evenodd">
        <g id="The-Game-Open-Board" transform="translate(-267.000000, -84.000000)">
            <g id="Logo" transform="translate(269.000000, 81.000000)">
                <text id="Mine-Sweeper" font-family="Now-Regular, Now" font-size="37" font-weight="normal" letter-spacing="2.46666605" fill="#24305E">
                    <tspan x="169.193129" y="43">MINE SWEEPER</tspan>
                </text>
                <path d="M156.25,64.5 L485.5,64.5" id="Line-Copy-2" stroke="#24305E" stroke-width="3" stroke-linecap="round"></path>
                <g transform="translate(0.000000, 4.000000)" stroke="#24305E">
                    <path d="M155.806961,60.5444874 C137.822813,50.3715618 122.607682,46.042865 110.161568,47.5583971 C89.3428597,50.0934391 83.5987175,58.8632422 72.5036698,65.0318538 C63.6628406,69.9471678 56.67398,72.1150611 45.4257284,73.8132848 C35.0099762,75.3858205 19.8680667,70.9628881 0,60.5444874" id="Line" stroke-width="3" stroke-linecap="round"></path>
                    <path d="M155.96853,87.3253349 C137.984381,77.1524092 122.76925,72.8237124 110.323136,74.3392446 C89.5044278,76.8742865 83.7602856,85.6440897 72.6652379,91.8127013 C63.8244087,96.7280152 56.8355481,98.8959086 45.5872965,100.594132 C35.1715443,102.166668 20.0296348,97.7437355 0.161568086,87.3253349" id="Line-Copy" stroke-width="3" stroke-linecap="round"></path>
                    <path d="M58.233721,22.0558117 L53.9688674,6.83768113 C53.3752614,4.71953697 54.6033898,2.51956167 56.7179258,1.91322822 L61.3276126,0.591421807 C63.4511733,-0.0174994252 65.6662875,1.21035847 66.2752088,3.33391917 L70.6660002,18.6464286 C73.3176006,18.2499513 76.03164,18.0444874 78.7936681,18.0444874 C86.0482665,18.0444874 92.853698,19.175524 99.0050537,21.3138169 L105.668462,4.26226031 C106.469118,2.21339412 108.773924,1.19552185 110.827568,1.98384197 L115.30451,3.70237919 C117.366919,4.4940638 118.397045,6.80776377 117.60536,8.87017269 L110.622446,27.0612856 C115.548198,30.3582741 119.751271,34.4951938 123.053717,39.3645516 C125.054555,42.314726 126.724797,45.5337583 128.024869,48.9977425 C128.293266,49.7128756 126.793145,47.9557212 122.175411,47.2636399 C117.94933,46.6302575 110.805655,47.0283417 106.374459,48.1373658 C102.435134,49.1232865 97.1533375,49.7616476 92.785028,52.0706267 C89.6317764,53.7373566 86.6696191,55.1785645 83.8379862,57.0952248 C82.1856586,58.2136434 80.9062482,60.0958545 78.7936681,60.6931335 C77.451903,61.0724839 76.1809206,62.6599207 74.9426267,63.6360364 C73.3719535,64.8741584 70.9523472,65.5866055 69.2732022,66.6336079 C64.3758121,69.6872924 59.1078899,71.6774164 54.4451992,72.6311547 C37.8161316,76.0325765 24.3047077,71.425579 24.3082723,71.2702151 C24.5348581,61.3943999 27.3884727,52.1676907 32.1975661,44.2616379 L22.5425872,37.1577815 C20.7707595,35.8541216 20.3840979,33.364406 21.6770788,31.5847704 L24.4957763,27.7051661 C25.7942756,25.9179352 28.2957543,25.5217399 30.0829853,26.8202392 L40.1381407,34.1257372 C45.2574966,28.9750279 51.3993407,24.8417354 58.233721,22.0558117 Z" id="Combined-Shape" stroke-width="2"></path>
                </g>
            </g>
        </g>
    </g>
</svg>