<?xml version="1.0" encoding="UTF-8"?>
<svg width="308px" height="51px" viewBox="0 0 308 51" version="1.1" xmlns="http://www.w3.org/2000/svg" xmlns:xlink="http://www.w3.org/1999/xlink">
    <!-- Generator: Sketch 55 (78076) - https://sketchapp.com -->
    <title>Logo2</title>
    <desc>Created with Sketch.</desc>
    <g id="Page-1" stroke="none" stroke-width="1" fill="none" fill-rule="evenodd">
        <g id="The-Game-Open-Board" transform="translate(-49.000000, -239.000000)">
            <g id="Logo2" transform="translate(49.000000, 240.000000)">
                <g id="Logo" transform="translate(89.000000, 0.000000)" fill="#24305E" font-family="Now-Regular, Now" font-size="27" font-weight="normal" letter-spacing="1.79999955">
                    <g id="Mine-Sweeper">
                        <text>
                            <tspan x="0.0868777" y="37.5">MINE SWEEPER</tspan>
                        </text>
                    </g>
                </g>
                <g id="Logo">
                    <path d="M28.0682062,9.71441406 L26.4270789,3.96112202 C25.9866709,2.41718615 26.8812571,0.808557685 28.425193,0.368149772 C28.4282402,0.367280545 28.4312889,0.3664163 28.434339,0.365557043 C29.9890076,-0.0724198944 31.6062559,0.823961134 32.0587883,2.37445551 L33.7539486,8.18251838 C34.9666238,8.00437416 36.2078547,7.91205564 37.4710327,7.91205564 C40.7888296,7.91205564 43.9012058,8.42025021 46.714449,9.3810228 L49.3467638,2.76308951 C49.944648,1.25994205 51.6365537,0.5129031 53.1501791,1.08374099 C54.6382411,1.64493812 55.3896136,3.30619093 54.8284165,4.79425301 C54.824407,4.80488463 54.8203346,4.81549244 54.8161995,4.82607586 L52.0275135,11.9634614 C54.2802425,13.4448562 56.2024636,15.3036469 57.7127949,17.4915349 C58.627852,18.8171 59.3917157,20.2634678 59.986287,21.8198967 C60.1090351,22.1412186 59.4229741,21.3516982 57.3111129,21.040734 C55.3783693,20.7561441 52.1113019,20.9350103 50.0847516,21.4333143 C48.2831517,21.8763058 45.8675905,22.1631327 43.8698005,23.2005975 C42.4277016,23.9494886 41.0729972,24.5970485 39.7779864,25.4582377 C39.0223157,25.9607628 38.4371939,26.8064733 37.4710327,27.0748412 C36.8573937,27.24529 36.2761263,27.9585533 35.7098086,28.3971392 C34.9914814,28.9534491 33.8849057,29.2735641 33.1169704,29.7440007 C30.8772123,31.1160748 28.4679961,32.0102724 26.3355746,32.4388038 C18.7304852,33.9671223 12.5512098,31.8971175 12.5528401,31.8273097 C12.6564661,27.3899325 13.96153,23.2442101 16.1609068,19.6918817 L12.620408,17.1325637 C11.3421488,16.2085493 11.0549766,14.4232538 11.978991,13.1449946 C11.9850384,13.1366289 11.991131,13.128296 11.9972687,13.1199964 C12.9499499,11.8317363 14.7595522,11.5451661 16.0636574,12.4760395 L19.7924261,15.1376435 C22.1336974,12.8233394 24.9425905,10.9661785 28.0682062,9.71441406 Z" id="Combined-Shape" stroke="#24305E" stroke-width="1.7" fill="#7893C3"></path>
                    <path d="M73.3032656,26.2403058 C64.846032,21.4650892 57.6160018,19.4118935 51.5868313,20.1447142 C45.6934293,20.8610327 42.5545048,22.2977188 37.8167682,25.6733601 C37.7206063,25.7418755 37.6000495,25.8278861 37.3848987,25.9813836 C35.7773485,27.1277636 34.9272573,27.693683 33.8638259,28.2838521 C30.0481556,30.4014225 27.036537,31.3676172 21.9420899,32.1353599 C17.5381972,32.7990348 10.8592864,30.8516846 2.0094333,26.219453 C1.33836736,25.8682005 0.509095296,26.1264703 0.15720229,26.7963148 C-0.194690716,27.4661592 0.0640500625,28.2939218 0.735115994,28.6451743 C10.0578633,33.5249303 17.2287081,35.6157123 22.3517263,34.8436639 C27.7559672,34.0292347 31.0792966,32.9630361 35.1972015,30.6777355 C36.3762413,30.0234076 37.2928518,29.4132052 38.9800138,28.2100523 C39.195954,28.0559918 39.3156298,27.9706098 39.4109626,27.9026851 C43.8072156,24.7703511 46.546521,23.5165708 51.9185104,22.8636278 C57.2733488,22.2127694 63.9600475,24.1116688 71.9522625,28.6243215 C72.2118657,28.7709015 72.4989789,28.8238708 72.7744752,28.7940641 C73.1988842,28.7481462 73.5957237,28.5057828 73.8219456,28.1065856 C74.1950149,27.4482579 73.9627939,26.6126959 73.3032656,26.2403058 Z" id="Line" fill="#24305E" fill-rule="nonzero"></path>
                    <path d="M73.3032656,41.2403058 C64.846032,36.4650892 57.6160018,34.4118935 51.5868313,35.1447142 C45.6934293,35.8610327 42.5545048,37.2977188 37.8167682,40.6733601 C37.7206063,40.7418755 37.6000495,40.8278861 37.3848987,40.9813836 C35.7773485,42.1277636 34.9272573,42.693683 33.8638259,43.2838521 C30.0481556,45.4014225 27.036537,46.3676172 21.9420899,47.1353599 C17.5381972,47.7990348 10.8592864,45.8516846 2.0094333,41.219453 C1.33836736,40.8682005 0.509095296,41.1264703 0.15720229,41.7963148 C-0.194690716,42.4661592 0.0640500625,43.2939218 0.735115994,43.6451743 C10.0578633,48.5249303 17.2287081,50.6157123 22.3517263,49.8436639 C27.7559672,49.0292347 31.0792966,47.9630361 35.1972015,45.6777355 C36.3762413,45.0234076 37.2928518,44.4132052 38.9800138,43.2100523 C39.195954,43.0559918 39.3156298,42.9706098 39.4109626,42.9026851 C43.8072156,39.7703511 46.546521,38.5165708 51.9185104,37.8636278 C57.2733488,37.2127694 63.9600475,39.1116688 71.9522625,43.6243215 C72.6117908,43.9967116 73.4488764,43.7649134 73.8219456,43.1065856 C74.1950149,42.4482579 73.9627939,41.6126959 73.3032656,41.2403058 Z" id="Line-Copy" fill="#24305E" fill-rule="nonzero"></path>
                </g>
                <path d="M13.6374671,15.0386941 C14.4894712,15.0386941 15.1801569,14.5832365 15.1801569,14.0214011 C15.1801569,13.4595657 14.6747805,13.6255696 13.8227765,13.6255696 C12.9707724,13.6255696 12.0947774,13.4595657 12.0947774,14.0214011 C12.0947774,14.5832365 12.7854631,15.0386941 13.6374671,15.0386941 Z" id="Oval-Copy" fill="#A8D0E6" transform="translate(13.637467, 14.320680) rotate(126.000000) translate(-13.637467, -14.320680) "></path>
                <path d="M28.0428036,2.76374332 C28.5186834,2.76374332 28.9044602,2.50935126 28.9044602,2.19554274 C28.9044602,1.88173423 28.6221864,1.97445434 28.1463066,1.97445434 C27.6704268,1.97445434 27.181147,1.88173423 27.181147,2.19554274 C27.181147,2.50935126 27.5669238,2.76374332 28.0428036,2.76374332 Z" id="Oval-Copy-5" fill="#A8D0E6" transform="translate(28.042804, 2.362703) rotate(126.000000) translate(-28.042804, -2.362703) "></path>
                <path d="M50.2908339,6.33175401 C52.2376079,6.33175401 53.81578,5.87629643 53.81578,5.31446102 C53.81578,4.75262562 52.6610277,4.91862953 50.7142537,4.91862953 C48.7674797,4.91862953 46.7658877,4.75262562 46.7658877,5.31446102 C46.7658877,5.87629643 48.3440599,6.33175401 50.2908339,6.33175401 Z" id="Oval-Copy-4" fill="#A8D0E6" transform="translate(50.290834, 5.613740) rotate(116.000000) translate(-50.290834, -5.613740) "></path>
                <path d="M23.3316392,22.0912898 C29.565514,22.0912898 34.6190681,20.8318286 34.6190681,19.2782044 C34.6190681,17.7245803 28.5091059,19.7045226 22.275231,19.7045226 C16.0413562,19.7045226 9.00560969,16.049197 9.00560969,17.6028211 C9.00560969,19.1564452 17.0977643,22.0912898 23.3316392,22.0912898 Z" id="Oval-Copy-2" fill="#A8D0E6" transform="translate(21.812339, 19.654761) rotate(126.000000) translate(-21.812339, -19.654761) "></path>
                <path d="M23.3316392,22.0912898 C29.565514,22.0912898 34.6190681,20.8318286 34.6190681,19.2782044 C34.6190681,17.7245803 28.5091059,19.7045226 22.275231,19.7045226 C16.0413562,19.7045226 9.00560969,16.049197 9.00560969,17.6028211 C9.00560969,19.1564452 17.0977643,22.0912898 23.3316392,22.0912898 Z" id="Oval-Copy-3" fill="#A8D0E6" transform="translate(21.812339, 19.654761) rotate(126.000000) translate(-21.812339, -19.654761) "></path>
            </g>
        </g>
    </g>
</svg>