<?xml version="1.0" encoding="UTF-8"?>
<svg width="24px" height="24px" viewBox="0 0 24 24" version="1.1" xmlns="http://www.w3.org/2000/svg" xmlns:xlink="http://www.w3.org/1999/xlink">
    <!-- Generator: Sketch 55 (78076) - https://sketchapp.com -->
    <title>mineShows</title>
    <desc>Created with Sketch.</desc>
    <defs>
        <path d="M7.40734532,2.3871099 C8.61014098,1.80114254 9.96128973,1.47237608 11.389226,1.47237608 C12.8171623,1.47237608 14.168311,1.80114254 15.3711067,2.3871099 L16.0125562,1.18071885 C16.2271344,0.777155959 16.7282367,0.623953594 17.1317996,0.838531788 C17.5353625,1.05310998 17.6885649,1.55421234 17.4739867,1.95777523 L16.7890105,3.24602801 C18.8270555,4.74994195 20.215434,7.08353972 20.4555628,9.74823815 L21.3202605,9.74823815 C21.7773237,9.74823815 22.1478467,10.1187611 22.1478467,10.5758244 C22.1478467,11.0328876 21.7773237,11.4034106 21.3202605,11.4034106 L20.4555628,11.4034106 C20.2516656,13.6660487 19.2198826,15.6899638 17.6654521,17.169918 L18.3015729,18.3662873 C18.5161511,18.7698502 18.3629487,19.2709525 17.9593858,19.4855307 C17.5558229,19.7001089 17.0547206,19.5469065 16.8401424,19.1433437 L16.3455064,18.2130687 C14.919344,19.140492 13.2172045,19.6792726 11.389226,19.6792726 C9.96128973,19.6792726 8.61014098,19.3505062 7.40734532,18.7645388 L6.76589582,19.9709299 C6.55131762,20.3744928 6.05021526,20.5276951 5.64665238,20.3131169 C5.24308949,20.0985387 5.08988712,19.5974364 5.30446532,19.1938735 L5.98944147,17.9056207 C3.95139651,16.4017068 2.56301802,14.068109 2.32288918,11.4034106 L1.45819151,11.4034106 C1.00112827,11.4034106 0.630605308,11.0328876 0.630605308,10.5758244 C0.630605308,10.1187611 1.00112827,9.74823815 1.45819151,9.74823815 L2.32288918,9.74823815 C2.56301802,7.08353972 3.95139651,4.74994195 5.98944147,3.24602801 L5.30446532,1.95777523 C5.08988712,1.55421234 5.24308949,1.05310998 5.64665238,0.838531788 C6.05021526,0.623953594 6.55131762,0.777155959 6.76589582,1.18071885 L7.40734532,2.3871099 Z" id="path-1"></path>
        <filter x="-25.6%" y="-28.0%" width="160.4%" height="166.1%" filterUnits="objectBoundingBox" id="filter-2">
            <feOffset dx="1" dy="1" in="SourceAlpha" result="shadowOffsetOuter1"></feOffset>
            <feGaussianBlur stdDeviation="2" in="shadowOffsetOuter1" result="shadowBlurOuter1"></feGaussianBlur>
            <feColorMatrix values="0 0 0 0 0   0 0 0 0 0   0 0 0 0 0  0 0 0 0.5 0" type="matrix" in="shadowBlurOuter1"></feColorMatrix>
        </filter>
    </defs>
    <g id="mineShows" stroke="none" stroke-width="1" fill="none" fill-rule="evenodd">
        <g id="mine" transform="translate(0.000000, 1.655172)">
            <g id="Mine" fill-rule="nonzero">
                <use fill="black" fill-opacity="1" filter="url(#filter-2)" xlink:href="#path-1"></use>
                <use fill="#F76C6C" xlink:href="#path-1"></use>
            </g>
            <g id="Shadows">
                <path d="M1.24137931,10.3291504 C1.46991093,10.3291504 1.65517241,10.2069838 1.65517241,10.0562836 C1.65517241,9.90558345 1.51961614,9.9501104 1.29108452,9.9501104 C1.0625529,9.9501104 0.827586207,9.90558345 0.827586207,10.0562836 C0.827586207,10.2069838 1.01284769,10.3291504 1.24137931,10.3291504 Z" id="Oval-Light-center-left-shadow" fill="#DFA0A0" transform="translate(1.241379, 10.136559) rotate(151.000000) translate(-1.241379, -10.136559) "></path>
                <path d="M1.53237913,11.1484747 C1.86550041,11.1484747 2.13554856,11.0263081 2.13554856,10.8756079 C2.13554856,10.7249077 1.93795368,10.7694347 1.60483239,10.7694347 C1.27171111,10.7694347 0.929209691,10.7249077 0.929209691,10.8756079 C0.929209691,11.0263081 1.19925785,11.1484747 1.53237913,11.1484747 Z" id="Dark-center-left-shadow" fill="#C44444" opacity="0.5" transform="translate(1.532379, 10.955883) scale(1, -1) rotate(179.000000) translate(-1.532379, -10.955883) "></path>
                <path d="M21.6910244,11.1249174 C21.9417902,11.1249174 22.145076,11.0027508 22.145076,10.8520506 C22.145076,10.7013505 21.9963313,10.7458774 21.7455655,10.7458774 C21.4947997,10.7458774 21.2369728,10.7013505 21.2369728,10.8520506 C21.2369728,11.0027508 21.4402586,11.1249174 21.6910244,11.1249174 Z" id="Dark-center-right-shadow" fill="#C44444" opacity="0.5" transform="translate(21.691024, 10.932326) scale(1, -1) rotate(219.000000) translate(-21.691024, -10.932326) "></path>
                <path d="M17.5562382,19.4613999 C17.8183045,19.4613999 18.0307512,19.3392332 18.0307512,19.1885331 C18.0307512,19.0378329 17.8753034,19.0823599 17.6132371,19.0823599 C17.3511708,19.0823599 17.0817252,19.0378329 17.0817252,19.1885331 C17.0817252,19.3392332 17.2941719,19.4613999 17.5562382,19.4613999 Z" id="Dark-down-right-shadow" fill="#C44444" opacity="0.5" transform="translate(17.556238, 19.268808) scale(1, -1) rotate(179.000000) translate(-17.556238, -19.268808) "></path>
                <path d="M5.8366641,20.0857845 C6.16978538,20.0857845 6.43983354,19.9636178 6.43983354,19.8129177 C6.43983354,19.6622175 6.24223865,19.7067445 5.90911737,19.7067445 C5.57599609,19.7067445 5.23349467,19.6622175 5.23349467,19.8129177 C5.23349467,19.9636178 5.50354282,20.0857845 5.8366641,20.0857845 Z" id="Dark-down-left-shadow" fill="#C44444" opacity="0.5" transform="translate(5.836664, 19.893193) scale(1, -1) rotate(153.000000) translate(-5.836664, -19.893193) "></path>
                <path d="M5.59264507,1.50476322 C5.82117669,1.50476322 6.00643818,1.38259659 6.00643818,1.23189642 C6.00643818,1.08119624 5.8708819,1.1257232 5.64235028,1.1257232 C5.41381866,1.1257232 5.17885197,1.08119624 5.17885197,1.23189642 C5.17885197,1.38259659 5.36411345,1.50476322 5.59264507,1.50476322 Z" id="Light-up-left-shadow" fill="#DFA0A0" transform="translate(5.592645, 1.312172) rotate(123.000000) translate(-5.592645, -1.312172) "></path>
                <path d="M16.703253,1.29304463 C16.9317847,1.29304463 17.1170461,1.17087801 17.1170461,1.02017783 C17.1170461,0.869477661 16.9814899,0.914004612 16.7529582,0.914004612 C16.5244266,0.914004612 16.2894599,0.869477661 16.2894599,1.02017783 C16.2894599,1.17087801 16.4747214,1.29304463 16.703253,1.29304463 Z" id="Light-up-right-shadow" fill="#DFA0A0" transform="translate(16.703253, 1.100453) rotate(167.000000) translate(-16.703253, -1.100453) "></path>
                <path d="M5.48433102,10.7351885 C6.39845751,10.7351885 5.16096733,8.8517161 5.16096733,6.62616757 C5.16096733,4.40061904 6.39845751,2.67576431 5.48433102,2.67576431 C4.57020454,2.67576431 3.82915861,4.47992786 3.82915861,6.70547638 C3.82915861,8.93102491 4.57020454,10.7351885 5.48433102,10.7351885 Z" id="Light-Big-Shadow" fill="#DFA0A0" transform="translate(4.825041, 6.705476) rotate(31.000000) translate(-4.825041, -6.705476) "></path>
                <path d="M20.7865157,17.0893001 C21.2853287,17.0893001 18.2899755,15.9209128 16.4556356,13.8986171 C14.928358,12.2148468 14.5402862,9.73688421 14.5402862,8.72575475 C14.5402862,6.50020622 15.7777764,4.77535148 14.8636499,4.77535148 C13.9495235,4.77535148 13.2084775,6.57951504 13.2084775,8.80506356 C13.2084775,9.84902958 14.308036,12.9697001 15.959375,14.6795455 C17.8283949,16.6147841 20.30119,17.0893001 20.7865157,17.0893001 Z" id="Dark-Big-Shadow" fill="#C44444" opacity="0.503194754" transform="translate(17.025113, 10.932326) scale(-1, -1) rotate(31.000000) translate(-17.025113, -10.932326) "></path>
            </g>
        </g>
    </g>
</svg>