<?xml version="1.0" encoding="UTF-8"?>
<svg width="26px" height="24px" viewBox="0 0 26 24" version="1.1" xmlns="http://www.w3.org/2000/svg" xmlns:xlink="http://www.w3.org/1999/xlink">
    <!-- Generator: Sketch 55 (78076) - https://sketchapp.com -->
    <title>whiteMine</title>
    <desc>Created with Sketch.</desc>
    <g id="whiteMine" stroke="none" stroke-width="1" fill="none" fill-rule="evenodd">
        <path d="M8.18856084,1.98844944 C9.64193894,1.28040555 11.274577,0.883146074 13,0.883146074 C14.725423,0.883146074 16.3580611,1.28040555 17.8114392,1.98844944 L18.586524,0.530726918 C18.845806,0.0430884275 19.4513046,-0.142031097 19.9389431,0.117250888 C20.4265816,0.376532872 20.6117011,0.982031553 20.3524192,1.46967004 L19.5247396,3.02630882 C21.9873773,4.84353816 23.6650013,7.66330214 23.955157,10.8831461 L25,10.8831461 C25.5522847,10.8831461 26,11.3308613 26,11.8831461 C26,12.4354308 25.5522847,12.8831461 25,12.8831461 L23.955157,12.8831461 C23.7087812,15.6171671 22.4620434,18.0627313 20.5837732,19.8510093 L21.3524192,21.2966221 C21.6117011,21.7842606 21.4265816,22.3897593 20.9389431,22.6490413 C20.4513046,22.9083232 19.845806,22.7232037 19.586524,22.2355652 L18.9888388,21.111483 C17.2655592,22.2321194 15.2088073,22.8831461 13,22.8831461 C11.274577,22.8831461 9.64193894,22.4858866 8.18856084,21.7778427 L7.41347603,23.2355652 C7.15419405,23.7232037 6.54869536,23.9083232 6.06105687,23.6490413 C5.57341838,23.3897593 5.38829886,22.7842606 5.64758084,22.2966221 L6.47526037,20.7399833 C4.0126227,18.922754 2.33499869,16.10299 2.04484302,12.8831461 L1,12.8831461 C0.44771525,12.8831461 0,12.4354308 0,11.8831461 C0,11.3308613 0.44771525,10.8831461 1,10.8831461 L2.04484302,10.8831461 C2.33499869,7.66330214 4.0126227,4.84353816 6.47526037,3.02630882 L5.64758084,1.46967004 C5.38829886,0.982031553 5.57341838,0.376532872 6.06105687,0.117250888 C6.54869536,-0.142031097 7.15419405,0.0430884275 7.41347603,0.530726918 L8.18856084,1.98844944 Z" id="Combined-Shape" fill="#FFFFFF" fill-rule="nonzero"></path>
    </g>
</svg>